<mxfile host="app.diagrams.net" agent="Mozilla/5.0 (Windows NT 10.0; Win64; x64) AppleWebKit/537.36 (KHTML, like Gecko) Chrome/134.0.0.0 Safari/537.36" version="26.1.1">
  <diagram name="第 1 页" id="z4V8CAMGyHvpLeVQiZ6z">
    <mxGraphModel dx="7975" dy="3459" grid="1" gridSize="10" guides="1" tooltips="1" connect="1" arrows="1" fold="1" page="1" pageScale="1" pageWidth="827" pageHeight="1169" math="0" shadow="0">
      <root>
        <mxCell id="0" />
        <mxCell id="1" parent="0" />
        <mxCell id="1I6qn7epMNJ4oBsnfpb--1" value="&lt;font style=&quot;font-size: 18px;&quot;&gt;健康档案&lt;/font&gt;" style="rounded=0;whiteSpace=wrap;html=1;" vertex="1" parent="1">
          <mxGeometry x="-1881" y="-360" width="110" height="60" as="geometry" />
        </mxCell>
        <mxCell id="1I6qn7epMNJ4oBsnfpb--2" value="&lt;font style=&quot;font-size: 18px;&quot;&gt;档案ID&lt;/font&gt;" style="ellipse;whiteSpace=wrap;html=1;" vertex="1" parent="1">
          <mxGeometry x="-2220" y="-500" width="100" height="70" as="geometry" />
        </mxCell>
        <mxCell id="1I6qn7epMNJ4oBsnfpb--4" value="&lt;font style=&quot;font-size: 18px;&quot;&gt;用户账号&lt;/font&gt;" style="ellipse;whiteSpace=wrap;html=1;" vertex="1" parent="1">
          <mxGeometry x="-2140" y="-570" width="100" height="70" as="geometry" />
        </mxCell>
        <mxCell id="1I6qn7epMNJ4oBsnfpb--5" value="&lt;font style=&quot;font-size: 18px;&quot;&gt;用户姓名&lt;/font&gt;" style="ellipse;whiteSpace=wrap;html=1;" vertex="1" parent="1">
          <mxGeometry x="-2050" y="-620" width="100" height="70" as="geometry" />
        </mxCell>
        <mxCell id="1I6qn7epMNJ4oBsnfpb--6" value="&lt;font style=&quot;font-size: 18px;&quot;&gt;性别&lt;/font&gt;" style="ellipse;whiteSpace=wrap;html=1;" vertex="1" parent="1">
          <mxGeometry x="-1950" y="-660" width="100" height="70" as="geometry" />
        </mxCell>
        <mxCell id="1I6qn7epMNJ4oBsnfpb--7" value="&lt;span style=&quot;font-size: 18px;&quot;&gt;年龄&lt;/span&gt;" style="ellipse;whiteSpace=wrap;html=1;" vertex="1" parent="1">
          <mxGeometry x="-1830" y="-680" width="100" height="70" as="geometry" />
        </mxCell>
        <mxCell id="1I6qn7epMNJ4oBsnfpb--8" value="&lt;span style=&quot;font-size: 18px;&quot;&gt;用户电话&lt;/span&gt;" style="ellipse;whiteSpace=wrap;html=1;" vertex="1" parent="1">
          <mxGeometry x="-1740" y="-640" width="100" height="70" as="geometry" />
        </mxCell>
        <mxCell id="1I6qn7epMNJ4oBsnfpb--9" value="&lt;span style=&quot;font-size: 18px;&quot;&gt;病史&lt;/span&gt;" style="ellipse;whiteSpace=wrap;html=1;" vertex="1" parent="1">
          <mxGeometry x="-1630" y="-580" width="100" height="70" as="geometry" />
        </mxCell>
        <mxCell id="1I6qn7epMNJ4oBsnfpb--10" value="&lt;span style=&quot;font-size: 18px;&quot;&gt;住院记录&lt;/span&gt;" style="ellipse;whiteSpace=wrap;html=1;" vertex="1" parent="1">
          <mxGeometry x="-1590" y="-500" width="100" height="70" as="geometry" />
        </mxCell>
        <mxCell id="1I6qn7epMNJ4oBsnfpb--11" value="" style="endArrow=none;html=1;rounded=0;entryX=1;entryY=1;entryDx=0;entryDy=0;exitX=0.5;exitY=0;exitDx=0;exitDy=0;" edge="1" parent="1" source="1I6qn7epMNJ4oBsnfpb--1" target="1I6qn7epMNJ4oBsnfpb--2">
          <mxGeometry width="50" height="50" relative="1" as="geometry">
            <mxPoint x="-1850" y="-310" as="sourcePoint" />
            <mxPoint x="-1800" y="-360" as="targetPoint" />
          </mxGeometry>
        </mxCell>
        <mxCell id="1I6qn7epMNJ4oBsnfpb--12" value="" style="endArrow=none;html=1;rounded=0;entryX=1;entryY=1;entryDx=0;entryDy=0;exitX=0.5;exitY=0;exitDx=0;exitDy=0;" edge="1" parent="1" source="1I6qn7epMNJ4oBsnfpb--1" target="1I6qn7epMNJ4oBsnfpb--4">
          <mxGeometry width="50" height="50" relative="1" as="geometry">
            <mxPoint x="-1631" y="-420" as="sourcePoint" />
            <mxPoint x="-1940" y="-500" as="targetPoint" />
          </mxGeometry>
        </mxCell>
        <mxCell id="1I6qn7epMNJ4oBsnfpb--13" value="" style="endArrow=none;html=1;rounded=0;entryX=1;entryY=1;entryDx=0;entryDy=0;exitX=0.5;exitY=0;exitDx=0;exitDy=0;" edge="1" parent="1" source="1I6qn7epMNJ4oBsnfpb--1" target="1I6qn7epMNJ4oBsnfpb--5">
          <mxGeometry width="50" height="50" relative="1" as="geometry">
            <mxPoint x="-1685.5" y="-370" as="sourcePoint" />
            <mxPoint x="-1914.5" y="-520" as="targetPoint" />
          </mxGeometry>
        </mxCell>
        <mxCell id="1I6qn7epMNJ4oBsnfpb--14" value="" style="endArrow=none;html=1;rounded=0;entryX=0.5;entryY=1;entryDx=0;entryDy=0;exitX=0.5;exitY=0;exitDx=0;exitDy=0;" edge="1" parent="1" source="1I6qn7epMNJ4oBsnfpb--1" target="1I6qn7epMNJ4oBsnfpb--6">
          <mxGeometry width="50" height="50" relative="1" as="geometry">
            <mxPoint x="-1650" y="-380" as="sourcePoint" />
            <mxPoint x="-1789" y="-580" as="targetPoint" />
          </mxGeometry>
        </mxCell>
        <mxCell id="1I6qn7epMNJ4oBsnfpb--15" value="" style="endArrow=none;html=1;rounded=0;entryX=0.5;entryY=1;entryDx=0;entryDy=0;exitX=0.5;exitY=0;exitDx=0;exitDy=0;" edge="1" parent="1" source="1I6qn7epMNJ4oBsnfpb--1" target="1I6qn7epMNJ4oBsnfpb--7">
          <mxGeometry width="50" height="50" relative="1" as="geometry">
            <mxPoint x="-1716" y="-370" as="sourcePoint" />
            <mxPoint x="-1790" y="-600" as="targetPoint" />
          </mxGeometry>
        </mxCell>
        <mxCell id="1I6qn7epMNJ4oBsnfpb--16" value="" style="endArrow=none;html=1;rounded=0;entryX=0.5;entryY=1;entryDx=0;entryDy=0;exitX=0.5;exitY=0;exitDx=0;exitDy=0;" edge="1" parent="1" source="1I6qn7epMNJ4oBsnfpb--1" target="1I6qn7epMNJ4oBsnfpb--8">
          <mxGeometry width="50" height="50" relative="1" as="geometry">
            <mxPoint x="-1816" y="-350" as="sourcePoint" />
            <mxPoint x="-1790" y="-620" as="targetPoint" />
          </mxGeometry>
        </mxCell>
        <mxCell id="1I6qn7epMNJ4oBsnfpb--17" value="" style="endArrow=none;html=1;rounded=0;entryX=0;entryY=1;entryDx=0;entryDy=0;exitX=0.5;exitY=0;exitDx=0;exitDy=0;" edge="1" parent="1" source="1I6qn7epMNJ4oBsnfpb--1" target="1I6qn7epMNJ4oBsnfpb--9">
          <mxGeometry width="50" height="50" relative="1" as="geometry">
            <mxPoint x="-1816" y="-350" as="sourcePoint" />
            <mxPoint x="-1680" y="-580" as="targetPoint" />
          </mxGeometry>
        </mxCell>
        <mxCell id="1I6qn7epMNJ4oBsnfpb--18" value="" style="endArrow=none;html=1;rounded=0;entryX=0;entryY=1;entryDx=0;entryDy=0;exitX=0.5;exitY=0;exitDx=0;exitDy=0;" edge="1" parent="1" source="1I6qn7epMNJ4oBsnfpb--1" target="1I6qn7epMNJ4oBsnfpb--10">
          <mxGeometry width="50" height="50" relative="1" as="geometry">
            <mxPoint x="-1816" y="-350" as="sourcePoint" />
            <mxPoint x="-1625" y="-530" as="targetPoint" />
          </mxGeometry>
        </mxCell>
        <mxCell id="1I6qn7epMNJ4oBsnfpb--19" value="&lt;span style=&quot;font-size: 18px;&quot;&gt;病历信息&lt;/span&gt;" style="rounded=0;whiteSpace=wrap;html=1;" vertex="1" parent="1">
          <mxGeometry x="-61" y="-400" width="110" height="60" as="geometry" />
        </mxCell>
        <mxCell id="1I6qn7epMNJ4oBsnfpb--20" value="&lt;font style=&quot;font-size: 18px;&quot;&gt;病历ID&lt;/font&gt;" style="ellipse;whiteSpace=wrap;html=1;" vertex="1" parent="1">
          <mxGeometry x="-400" y="-540" width="100" height="70" as="geometry" />
        </mxCell>
        <mxCell id="1I6qn7epMNJ4oBsnfpb--21" value="&lt;font style=&quot;font-size: 18px;&quot;&gt;医生账号&lt;/font&gt;" style="ellipse;whiteSpace=wrap;html=1;" vertex="1" parent="1">
          <mxGeometry x="-320" y="-610" width="100" height="70" as="geometry" />
        </mxCell>
        <mxCell id="1I6qn7epMNJ4oBsnfpb--22" value="&lt;font style=&quot;font-size: 18px;&quot;&gt;医生姓名&lt;/font&gt;" style="ellipse;whiteSpace=wrap;html=1;" vertex="1" parent="1">
          <mxGeometry x="-230" y="-660" width="100" height="70" as="geometry" />
        </mxCell>
        <mxCell id="1I6qn7epMNJ4oBsnfpb--23" value="&lt;font style=&quot;font-size: 18px;&quot;&gt;登记时间&lt;/font&gt;" style="ellipse;whiteSpace=wrap;html=1;" vertex="1" parent="1">
          <mxGeometry x="-130" y="-700" width="100" height="70" as="geometry" />
        </mxCell>
        <mxCell id="1I6qn7epMNJ4oBsnfpb--24" value="&lt;span style=&quot;font-size: 18px;&quot;&gt;诊断内容&lt;/span&gt;" style="ellipse;whiteSpace=wrap;html=1;" vertex="1" parent="1">
          <mxGeometry x="-10" y="-720" width="100" height="70" as="geometry" />
        </mxCell>
        <mxCell id="1I6qn7epMNJ4oBsnfpb--25" value="&lt;span style=&quot;font-size: 18px;&quot;&gt;病历描述&lt;/span&gt;" style="ellipse;whiteSpace=wrap;html=1;" vertex="1" parent="1">
          <mxGeometry x="90" y="-680" width="100" height="70" as="geometry" />
        </mxCell>
        <mxCell id="1I6qn7epMNJ4oBsnfpb--26" value="&lt;span style=&quot;font-size: 18px;&quot;&gt;用户账号&lt;/span&gt;" style="ellipse;whiteSpace=wrap;html=1;" vertex="1" parent="1">
          <mxGeometry x="190" y="-620" width="100" height="70" as="geometry" />
        </mxCell>
        <mxCell id="1I6qn7epMNJ4oBsnfpb--27" value="&lt;span style=&quot;font-size: 18px;&quot;&gt;用户姓名&lt;/span&gt;" style="ellipse;whiteSpace=wrap;html=1;" vertex="1" parent="1">
          <mxGeometry x="230" y="-540" width="100" height="70" as="geometry" />
        </mxCell>
        <mxCell id="1I6qn7epMNJ4oBsnfpb--28" value="" style="endArrow=none;html=1;rounded=0;entryX=1;entryY=1;entryDx=0;entryDy=0;exitX=0.5;exitY=0;exitDx=0;exitDy=0;" edge="1" parent="1" source="1I6qn7epMNJ4oBsnfpb--19" target="1I6qn7epMNJ4oBsnfpb--20">
          <mxGeometry width="50" height="50" relative="1" as="geometry">
            <mxPoint x="-30" y="-350" as="sourcePoint" />
            <mxPoint x="20" y="-400" as="targetPoint" />
          </mxGeometry>
        </mxCell>
        <mxCell id="1I6qn7epMNJ4oBsnfpb--29" value="" style="endArrow=none;html=1;rounded=0;entryX=1;entryY=1;entryDx=0;entryDy=0;exitX=0.5;exitY=0;exitDx=0;exitDy=0;" edge="1" parent="1" source="1I6qn7epMNJ4oBsnfpb--19" target="1I6qn7epMNJ4oBsnfpb--21">
          <mxGeometry width="50" height="50" relative="1" as="geometry">
            <mxPoint x="189" y="-460" as="sourcePoint" />
            <mxPoint x="-120" y="-540" as="targetPoint" />
          </mxGeometry>
        </mxCell>
        <mxCell id="1I6qn7epMNJ4oBsnfpb--30" value="" style="endArrow=none;html=1;rounded=0;entryX=1;entryY=1;entryDx=0;entryDy=0;exitX=0.5;exitY=0;exitDx=0;exitDy=0;" edge="1" parent="1" source="1I6qn7epMNJ4oBsnfpb--19" target="1I6qn7epMNJ4oBsnfpb--22">
          <mxGeometry width="50" height="50" relative="1" as="geometry">
            <mxPoint x="134.5" y="-410" as="sourcePoint" />
            <mxPoint x="-94.5" y="-560" as="targetPoint" />
          </mxGeometry>
        </mxCell>
        <mxCell id="1I6qn7epMNJ4oBsnfpb--31" value="" style="endArrow=none;html=1;rounded=0;entryX=0.5;entryY=1;entryDx=0;entryDy=0;exitX=0.5;exitY=0;exitDx=0;exitDy=0;" edge="1" parent="1" source="1I6qn7epMNJ4oBsnfpb--19" target="1I6qn7epMNJ4oBsnfpb--23">
          <mxGeometry width="50" height="50" relative="1" as="geometry">
            <mxPoint x="170" y="-420" as="sourcePoint" />
            <mxPoint x="31" y="-620" as="targetPoint" />
          </mxGeometry>
        </mxCell>
        <mxCell id="1I6qn7epMNJ4oBsnfpb--32" value="" style="endArrow=none;html=1;rounded=0;entryX=0.5;entryY=1;entryDx=0;entryDy=0;exitX=0.5;exitY=0;exitDx=0;exitDy=0;" edge="1" parent="1" source="1I6qn7epMNJ4oBsnfpb--19" target="1I6qn7epMNJ4oBsnfpb--24">
          <mxGeometry width="50" height="50" relative="1" as="geometry">
            <mxPoint x="104" y="-410" as="sourcePoint" />
            <mxPoint x="30" y="-640" as="targetPoint" />
          </mxGeometry>
        </mxCell>
        <mxCell id="1I6qn7epMNJ4oBsnfpb--33" value="" style="endArrow=none;html=1;rounded=0;entryX=0.5;entryY=1;entryDx=0;entryDy=0;exitX=0.5;exitY=0;exitDx=0;exitDy=0;" edge="1" parent="1" source="1I6qn7epMNJ4oBsnfpb--19" target="1I6qn7epMNJ4oBsnfpb--25">
          <mxGeometry width="50" height="50" relative="1" as="geometry">
            <mxPoint x="4" y="-390" as="sourcePoint" />
            <mxPoint x="30" y="-660" as="targetPoint" />
          </mxGeometry>
        </mxCell>
        <mxCell id="1I6qn7epMNJ4oBsnfpb--34" value="" style="endArrow=none;html=1;rounded=0;entryX=0;entryY=1;entryDx=0;entryDy=0;exitX=0.5;exitY=0;exitDx=0;exitDy=0;" edge="1" parent="1" source="1I6qn7epMNJ4oBsnfpb--19" target="1I6qn7epMNJ4oBsnfpb--26">
          <mxGeometry width="50" height="50" relative="1" as="geometry">
            <mxPoint x="4" y="-390" as="sourcePoint" />
            <mxPoint x="140" y="-620" as="targetPoint" />
          </mxGeometry>
        </mxCell>
        <mxCell id="1I6qn7epMNJ4oBsnfpb--35" value="" style="endArrow=none;html=1;rounded=0;entryX=0;entryY=1;entryDx=0;entryDy=0;exitX=0.5;exitY=0;exitDx=0;exitDy=0;" edge="1" parent="1" source="1I6qn7epMNJ4oBsnfpb--19" target="1I6qn7epMNJ4oBsnfpb--27">
          <mxGeometry width="50" height="50" relative="1" as="geometry">
            <mxPoint x="4" y="-390" as="sourcePoint" />
            <mxPoint x="195" y="-570" as="targetPoint" />
          </mxGeometry>
        </mxCell>
        <mxCell id="1I6qn7epMNJ4oBsnfpb--36" value="&lt;span style=&quot;font-size: 18px;&quot;&gt;费用信息&lt;/span&gt;" style="rounded=0;whiteSpace=wrap;html=1;" vertex="1" parent="1">
          <mxGeometry x="-2341" y="240" width="110" height="60" as="geometry" />
        </mxCell>
        <mxCell id="1I6qn7epMNJ4oBsnfpb--37" value="&lt;font style=&quot;font-size: 18px;&quot;&gt;费用ID&lt;/font&gt;" style="ellipse;whiteSpace=wrap;html=1;" vertex="1" parent="1">
          <mxGeometry x="-2650" y="90" width="100" height="70" as="geometry" />
        </mxCell>
        <mxCell id="1I6qn7epMNJ4oBsnfpb--38" value="&lt;font style=&quot;font-size: 18px;&quot;&gt;用户账号&lt;/font&gt;" style="ellipse;whiteSpace=wrap;html=1;" vertex="1" parent="1">
          <mxGeometry x="-2590" y="10" width="100" height="70" as="geometry" />
        </mxCell>
        <mxCell id="1I6qn7epMNJ4oBsnfpb--39" value="&lt;font style=&quot;font-size: 18px;&quot;&gt;用户姓名&lt;/font&gt;" style="ellipse;whiteSpace=wrap;html=1;" vertex="1" parent="1">
          <mxGeometry x="-2490" y="-40" width="100" height="70" as="geometry" />
        </mxCell>
        <mxCell id="1I6qn7epMNJ4oBsnfpb--40" value="&lt;span style=&quot;font-size: 18px;&quot;&gt;医疗费用&lt;/span&gt;" style="ellipse;whiteSpace=wrap;html=1;" vertex="1" parent="1">
          <mxGeometry x="-2350" y="-90" width="100" height="70" as="geometry" />
        </mxCell>
        <mxCell id="1I6qn7epMNJ4oBsnfpb--41" value="&lt;span style=&quot;font-size: 18px;&quot;&gt;支付费用&lt;/span&gt;" style="ellipse;whiteSpace=wrap;html=1;" vertex="1" parent="1">
          <mxGeometry x="-2240" y="-60" width="100" height="70" as="geometry" />
        </mxCell>
        <mxCell id="1I6qn7epMNJ4oBsnfpb--42" value="&lt;span style=&quot;font-size: 18px;&quot;&gt;医生账号&lt;/span&gt;" style="ellipse;whiteSpace=wrap;html=1;" vertex="1" parent="1">
          <mxGeometry x="-2150" width="100" height="70" as="geometry" />
        </mxCell>
        <mxCell id="1I6qn7epMNJ4oBsnfpb--43" value="&lt;span style=&quot;font-size: 18px;&quot;&gt;医生姓名&lt;/span&gt;" style="ellipse;whiteSpace=wrap;html=1;" vertex="1" parent="1">
          <mxGeometry x="-2090" y="80" width="100" height="70" as="geometry" />
        </mxCell>
        <mxCell id="1I6qn7epMNJ4oBsnfpb--45" value="" style="endArrow=none;html=1;rounded=0;entryX=1;entryY=1;entryDx=0;entryDy=0;exitX=0.5;exitY=0;exitDx=0;exitDy=0;" edge="1" parent="1" source="1I6qn7epMNJ4oBsnfpb--36" target="1I6qn7epMNJ4oBsnfpb--37">
          <mxGeometry width="50" height="50" relative="1" as="geometry">
            <mxPoint x="-2310" y="290" as="sourcePoint" />
            <mxPoint x="-2260" y="240" as="targetPoint" />
          </mxGeometry>
        </mxCell>
        <mxCell id="1I6qn7epMNJ4oBsnfpb--46" value="" style="endArrow=none;html=1;rounded=0;entryX=1;entryY=1;entryDx=0;entryDy=0;exitX=0.5;exitY=0;exitDx=0;exitDy=0;" edge="1" parent="1" source="1I6qn7epMNJ4oBsnfpb--36" target="1I6qn7epMNJ4oBsnfpb--38">
          <mxGeometry width="50" height="50" relative="1" as="geometry">
            <mxPoint x="-2091" y="180" as="sourcePoint" />
            <mxPoint x="-2400" y="100" as="targetPoint" />
          </mxGeometry>
        </mxCell>
        <mxCell id="1I6qn7epMNJ4oBsnfpb--47" value="" style="endArrow=none;html=1;rounded=0;entryX=1;entryY=1;entryDx=0;entryDy=0;exitX=0.5;exitY=0;exitDx=0;exitDy=0;" edge="1" parent="1" source="1I6qn7epMNJ4oBsnfpb--36" target="1I6qn7epMNJ4oBsnfpb--39">
          <mxGeometry width="50" height="50" relative="1" as="geometry">
            <mxPoint x="-2145.5" y="230" as="sourcePoint" />
            <mxPoint x="-2374.5" y="80" as="targetPoint" />
          </mxGeometry>
        </mxCell>
        <mxCell id="1I6qn7epMNJ4oBsnfpb--48" value="" style="endArrow=none;html=1;rounded=0;entryX=0.5;entryY=1;entryDx=0;entryDy=0;exitX=0.5;exitY=0;exitDx=0;exitDy=0;" edge="1" parent="1" source="1I6qn7epMNJ4oBsnfpb--36" target="1I6qn7epMNJ4oBsnfpb--40">
          <mxGeometry width="50" height="50" relative="1" as="geometry">
            <mxPoint x="-2110" y="220" as="sourcePoint" />
            <mxPoint x="-2249" y="20" as="targetPoint" />
          </mxGeometry>
        </mxCell>
        <mxCell id="1I6qn7epMNJ4oBsnfpb--49" value="" style="endArrow=none;html=1;rounded=0;entryX=0.5;entryY=1;entryDx=0;entryDy=0;exitX=0.5;exitY=0;exitDx=0;exitDy=0;" edge="1" parent="1" source="1I6qn7epMNJ4oBsnfpb--36" target="1I6qn7epMNJ4oBsnfpb--41">
          <mxGeometry width="50" height="50" relative="1" as="geometry">
            <mxPoint x="-2176" y="230" as="sourcePoint" />
            <mxPoint x="-2250" as="targetPoint" />
          </mxGeometry>
        </mxCell>
        <mxCell id="1I6qn7epMNJ4oBsnfpb--50" value="" style="endArrow=none;html=1;rounded=0;entryX=0.5;entryY=1;entryDx=0;entryDy=0;exitX=0.5;exitY=0;exitDx=0;exitDy=0;" edge="1" parent="1" source="1I6qn7epMNJ4oBsnfpb--36" target="1I6qn7epMNJ4oBsnfpb--42">
          <mxGeometry width="50" height="50" relative="1" as="geometry">
            <mxPoint x="-2276" y="250" as="sourcePoint" />
            <mxPoint x="-2250" y="-20" as="targetPoint" />
          </mxGeometry>
        </mxCell>
        <mxCell id="1I6qn7epMNJ4oBsnfpb--51" value="" style="endArrow=none;html=1;rounded=0;entryX=0;entryY=1;entryDx=0;entryDy=0;exitX=0.5;exitY=0;exitDx=0;exitDy=0;" edge="1" parent="1" source="1I6qn7epMNJ4oBsnfpb--36" target="1I6qn7epMNJ4oBsnfpb--43">
          <mxGeometry width="50" height="50" relative="1" as="geometry">
            <mxPoint x="-2276" y="250" as="sourcePoint" />
            <mxPoint x="-2140" y="20" as="targetPoint" />
          </mxGeometry>
        </mxCell>
        <mxCell id="1I6qn7epMNJ4oBsnfpb--53" value="&lt;span style=&quot;font-size: 18px;&quot;&gt;诊疗方案&lt;/span&gt;" style="rounded=0;whiteSpace=wrap;html=1;" vertex="1" parent="1">
          <mxGeometry x="-541" y="810" width="110" height="60" as="geometry" />
        </mxCell>
        <mxCell id="1I6qn7epMNJ4oBsnfpb--54" value="&lt;font style=&quot;font-size: 18px;&quot;&gt;方案ID&lt;/font&gt;" style="ellipse;whiteSpace=wrap;html=1;" vertex="1" parent="1">
          <mxGeometry x="-640" y="560" width="100" height="70" as="geometry" />
        </mxCell>
        <mxCell id="1I6qn7epMNJ4oBsnfpb--55" value="&lt;font style=&quot;font-size: 18px;&quot;&gt;用户账号&lt;/font&gt;" style="ellipse;whiteSpace=wrap;html=1;" vertex="1" parent="1">
          <mxGeometry x="-540" y="480" width="100" height="70" as="geometry" />
        </mxCell>
        <mxCell id="1I6qn7epMNJ4oBsnfpb--56" value="&lt;font style=&quot;font-size: 18px;&quot;&gt;用户名&lt;/font&gt;" style="ellipse;whiteSpace=wrap;html=1;" vertex="1" parent="1">
          <mxGeometry x="-420" y="540" width="100" height="70" as="geometry" />
        </mxCell>
        <mxCell id="1I6qn7epMNJ4oBsnfpb--57" value="&lt;span style=&quot;font-size: 18px;&quot;&gt;诊疗详情&lt;/span&gt;" style="ellipse;whiteSpace=wrap;html=1;" vertex="1" parent="1">
          <mxGeometry x="-230" y="700" width="100" height="70" as="geometry" />
        </mxCell>
        <mxCell id="1I6qn7epMNJ4oBsnfpb--61" value="" style="endArrow=none;html=1;rounded=0;entryX=1;entryY=1;entryDx=0;entryDy=0;exitX=0.5;exitY=0;exitDx=0;exitDy=0;" edge="1" parent="1" source="1I6qn7epMNJ4oBsnfpb--53" target="1I6qn7epMNJ4oBsnfpb--54">
          <mxGeometry width="50" height="50" relative="1" as="geometry">
            <mxPoint x="-510" y="860" as="sourcePoint" />
            <mxPoint x="-460" y="810" as="targetPoint" />
          </mxGeometry>
        </mxCell>
        <mxCell id="1I6qn7epMNJ4oBsnfpb--62" value="" style="endArrow=none;html=1;rounded=0;entryX=0.5;entryY=1;entryDx=0;entryDy=0;exitX=0.5;exitY=0;exitDx=0;exitDy=0;" edge="1" parent="1" source="1I6qn7epMNJ4oBsnfpb--53" target="1I6qn7epMNJ4oBsnfpb--55">
          <mxGeometry width="50" height="50" relative="1" as="geometry">
            <mxPoint x="-291" y="750" as="sourcePoint" />
            <mxPoint x="-600" y="670" as="targetPoint" />
          </mxGeometry>
        </mxCell>
        <mxCell id="1I6qn7epMNJ4oBsnfpb--63" value="" style="endArrow=none;html=1;rounded=0;entryX=0.5;entryY=1;entryDx=0;entryDy=0;exitX=0.5;exitY=0;exitDx=0;exitDy=0;" edge="1" parent="1" source="1I6qn7epMNJ4oBsnfpb--53" target="1I6qn7epMNJ4oBsnfpb--56">
          <mxGeometry width="50" height="50" relative="1" as="geometry">
            <mxPoint x="-345.5" y="800" as="sourcePoint" />
            <mxPoint x="-574.5" y="650" as="targetPoint" />
          </mxGeometry>
        </mxCell>
        <mxCell id="1I6qn7epMNJ4oBsnfpb--64" value="" style="endArrow=none;html=1;rounded=0;entryX=0.5;entryY=1;entryDx=0;entryDy=0;exitX=0.5;exitY=0;exitDx=0;exitDy=0;" edge="1" parent="1" source="1I6qn7epMNJ4oBsnfpb--53" target="1I6qn7epMNJ4oBsnfpb--57">
          <mxGeometry width="50" height="50" relative="1" as="geometry">
            <mxPoint x="-310" y="790" as="sourcePoint" />
            <mxPoint x="-449" y="590" as="targetPoint" />
          </mxGeometry>
        </mxCell>
        <mxCell id="1I6qn7epMNJ4oBsnfpb--68" value="&lt;span style=&quot;font-size: 18px;&quot;&gt;预约医生&lt;/span&gt;" style="rounded=0;whiteSpace=wrap;html=1;" vertex="1" parent="1">
          <mxGeometry x="-1031" y="-400" width="110" height="60" as="geometry" />
        </mxCell>
        <mxCell id="1I6qn7epMNJ4oBsnfpb--69" value="&lt;font style=&quot;font-size: 18px;&quot;&gt;预约ID&lt;/font&gt;" style="ellipse;whiteSpace=wrap;html=1;" vertex="1" parent="1">
          <mxGeometry x="-1340" y="-550" width="100" height="70" as="geometry" />
        </mxCell>
        <mxCell id="1I6qn7epMNJ4oBsnfpb--70" value="&lt;font style=&quot;font-size: 18px;&quot;&gt;医生账号&lt;/font&gt;" style="ellipse;whiteSpace=wrap;html=1;" vertex="1" parent="1">
          <mxGeometry x="-1280" y="-630" width="100" height="70" as="geometry" />
        </mxCell>
        <mxCell id="1I6qn7epMNJ4oBsnfpb--71" value="&lt;font style=&quot;font-size: 18px;&quot;&gt;医生姓名&lt;/font&gt;" style="ellipse;whiteSpace=wrap;html=1;" vertex="1" parent="1">
          <mxGeometry x="-1180" y="-680" width="100" height="70" as="geometry" />
        </mxCell>
        <mxCell id="1I6qn7epMNJ4oBsnfpb--72" value="&lt;span style=&quot;font-size: 18px;&quot;&gt;预约时间&lt;/span&gt;" style="ellipse;whiteSpace=wrap;html=1;" vertex="1" parent="1">
          <mxGeometry x="-1040" y="-730" width="100" height="70" as="geometry" />
        </mxCell>
        <mxCell id="1I6qn7epMNJ4oBsnfpb--73" value="&lt;span style=&quot;font-size: 18px;&quot;&gt;用户账号&lt;/span&gt;" style="ellipse;whiteSpace=wrap;html=1;" vertex="1" parent="1">
          <mxGeometry x="-930" y="-700" width="100" height="70" as="geometry" />
        </mxCell>
        <mxCell id="1I6qn7epMNJ4oBsnfpb--74" value="&lt;span style=&quot;font-size: 18px;&quot;&gt;用户姓名&lt;/span&gt;" style="ellipse;whiteSpace=wrap;html=1;" vertex="1" parent="1">
          <mxGeometry x="-840" y="-640" width="100" height="70" as="geometry" />
        </mxCell>
        <mxCell id="1I6qn7epMNJ4oBsnfpb--75" value="&lt;span style=&quot;font-size: 18px;&quot;&gt;科室&lt;/span&gt;" style="ellipse;whiteSpace=wrap;html=1;" vertex="1" parent="1">
          <mxGeometry x="-780" y="-560" width="100" height="70" as="geometry" />
        </mxCell>
        <mxCell id="1I6qn7epMNJ4oBsnfpb--76" value="" style="endArrow=none;html=1;rounded=0;entryX=1;entryY=1;entryDx=0;entryDy=0;exitX=0.5;exitY=0;exitDx=0;exitDy=0;" edge="1" parent="1" source="1I6qn7epMNJ4oBsnfpb--68" target="1I6qn7epMNJ4oBsnfpb--69">
          <mxGeometry width="50" height="50" relative="1" as="geometry">
            <mxPoint x="-1000" y="-350" as="sourcePoint" />
            <mxPoint x="-950" y="-400" as="targetPoint" />
          </mxGeometry>
        </mxCell>
        <mxCell id="1I6qn7epMNJ4oBsnfpb--77" value="" style="endArrow=none;html=1;rounded=0;entryX=1;entryY=1;entryDx=0;entryDy=0;exitX=0.5;exitY=0;exitDx=0;exitDy=0;" edge="1" parent="1" source="1I6qn7epMNJ4oBsnfpb--68" target="1I6qn7epMNJ4oBsnfpb--70">
          <mxGeometry width="50" height="50" relative="1" as="geometry">
            <mxPoint x="-781" y="-460" as="sourcePoint" />
            <mxPoint x="-1090" y="-540" as="targetPoint" />
          </mxGeometry>
        </mxCell>
        <mxCell id="1I6qn7epMNJ4oBsnfpb--78" value="" style="endArrow=none;html=1;rounded=0;entryX=1;entryY=1;entryDx=0;entryDy=0;exitX=0.5;exitY=0;exitDx=0;exitDy=0;" edge="1" parent="1" source="1I6qn7epMNJ4oBsnfpb--68" target="1I6qn7epMNJ4oBsnfpb--71">
          <mxGeometry width="50" height="50" relative="1" as="geometry">
            <mxPoint x="-835.5" y="-410" as="sourcePoint" />
            <mxPoint x="-1064.5" y="-560" as="targetPoint" />
          </mxGeometry>
        </mxCell>
        <mxCell id="1I6qn7epMNJ4oBsnfpb--79" value="" style="endArrow=none;html=1;rounded=0;entryX=0.5;entryY=1;entryDx=0;entryDy=0;exitX=0.5;exitY=0;exitDx=0;exitDy=0;" edge="1" parent="1" source="1I6qn7epMNJ4oBsnfpb--68" target="1I6qn7epMNJ4oBsnfpb--72">
          <mxGeometry width="50" height="50" relative="1" as="geometry">
            <mxPoint x="-800" y="-420" as="sourcePoint" />
            <mxPoint x="-939" y="-620" as="targetPoint" />
          </mxGeometry>
        </mxCell>
        <mxCell id="1I6qn7epMNJ4oBsnfpb--80" value="" style="endArrow=none;html=1;rounded=0;entryX=0.5;entryY=1;entryDx=0;entryDy=0;exitX=0.5;exitY=0;exitDx=0;exitDy=0;" edge="1" parent="1" source="1I6qn7epMNJ4oBsnfpb--68" target="1I6qn7epMNJ4oBsnfpb--73">
          <mxGeometry width="50" height="50" relative="1" as="geometry">
            <mxPoint x="-866" y="-410" as="sourcePoint" />
            <mxPoint x="-940" y="-640" as="targetPoint" />
          </mxGeometry>
        </mxCell>
        <mxCell id="1I6qn7epMNJ4oBsnfpb--81" value="" style="endArrow=none;html=1;rounded=0;entryX=0.5;entryY=1;entryDx=0;entryDy=0;exitX=0.5;exitY=0;exitDx=0;exitDy=0;" edge="1" parent="1" source="1I6qn7epMNJ4oBsnfpb--68" target="1I6qn7epMNJ4oBsnfpb--74">
          <mxGeometry width="50" height="50" relative="1" as="geometry">
            <mxPoint x="-966" y="-390" as="sourcePoint" />
            <mxPoint x="-940" y="-660" as="targetPoint" />
          </mxGeometry>
        </mxCell>
        <mxCell id="1I6qn7epMNJ4oBsnfpb--82" value="" style="endArrow=none;html=1;rounded=0;entryX=0;entryY=1;entryDx=0;entryDy=0;exitX=0.5;exitY=0;exitDx=0;exitDy=0;" edge="1" parent="1" source="1I6qn7epMNJ4oBsnfpb--68" target="1I6qn7epMNJ4oBsnfpb--75">
          <mxGeometry width="50" height="50" relative="1" as="geometry">
            <mxPoint x="-966" y="-390" as="sourcePoint" />
            <mxPoint x="-830" y="-620" as="targetPoint" />
          </mxGeometry>
        </mxCell>
        <mxCell id="1I6qn7epMNJ4oBsnfpb--83" value="&lt;span style=&quot;font-size: 18px;&quot;&gt;医生&lt;/span&gt;" style="rounded=0;whiteSpace=wrap;html=1;" vertex="1" parent="1">
          <mxGeometry x="179" y="262" width="110" height="60" as="geometry" />
        </mxCell>
        <mxCell id="1I6qn7epMNJ4oBsnfpb--84" value="&lt;font style=&quot;font-size: 18px;&quot;&gt;医生ID&lt;/font&gt;" style="ellipse;whiteSpace=wrap;html=1;" vertex="1" parent="1">
          <mxGeometry x="-211" y="202" width="100" height="70" as="geometry" />
        </mxCell>
        <mxCell id="1I6qn7epMNJ4oBsnfpb--85" value="&lt;font style=&quot;font-size: 18px;&quot;&gt;医生账号&lt;/font&gt;" style="ellipse;whiteSpace=wrap;html=1;" vertex="1" parent="1">
          <mxGeometry x="-151" y="122" width="100" height="70" as="geometry" />
        </mxCell>
        <mxCell id="1I6qn7epMNJ4oBsnfpb--86" value="&lt;font style=&quot;font-size: 18px;&quot;&gt;医生姓名&lt;/font&gt;" style="ellipse;whiteSpace=wrap;html=1;" vertex="1" parent="1">
          <mxGeometry x="-51" y="72" width="100" height="70" as="geometry" />
        </mxCell>
        <mxCell id="1I6qn7epMNJ4oBsnfpb--87" value="&lt;span style=&quot;font-size: 18px;&quot;&gt;医生电话&lt;/span&gt;" style="ellipse;whiteSpace=wrap;html=1;" vertex="1" parent="1">
          <mxGeometry x="340" y="10" width="100" height="70" as="geometry" />
        </mxCell>
        <mxCell id="1I6qn7epMNJ4oBsnfpb--88" value="&lt;span style=&quot;font-size: 18px;&quot;&gt;科室&lt;/span&gt;" style="ellipse;whiteSpace=wrap;html=1;" vertex="1" parent="1">
          <mxGeometry x="450" y="40" width="100" height="70" as="geometry" />
        </mxCell>
        <mxCell id="1I6qn7epMNJ4oBsnfpb--89" value="&lt;span style=&quot;font-size: 18px;&quot;&gt;职称&lt;/span&gt;" style="ellipse;whiteSpace=wrap;html=1;" vertex="1" parent="1">
          <mxGeometry x="540" y="100" width="100" height="70" as="geometry" />
        </mxCell>
        <mxCell id="1I6qn7epMNJ4oBsnfpb--90" value="&lt;span style=&quot;font-size: 18px;&quot;&gt;简介&lt;/span&gt;" style="ellipse;whiteSpace=wrap;html=1;" vertex="1" parent="1">
          <mxGeometry x="600" y="180" width="100" height="70" as="geometry" />
        </mxCell>
        <mxCell id="1I6qn7epMNJ4oBsnfpb--91" value="" style="endArrow=none;html=1;rounded=0;entryX=1;entryY=1;entryDx=0;entryDy=0;exitX=0.5;exitY=0;exitDx=0;exitDy=0;" edge="1" parent="1" source="1I6qn7epMNJ4oBsnfpb--83" target="1I6qn7epMNJ4oBsnfpb--84">
          <mxGeometry width="50" height="50" relative="1" as="geometry">
            <mxPoint x="210" y="312" as="sourcePoint" />
            <mxPoint x="260" y="262" as="targetPoint" />
          </mxGeometry>
        </mxCell>
        <mxCell id="1I6qn7epMNJ4oBsnfpb--92" value="" style="endArrow=none;html=1;rounded=0;entryX=1;entryY=1;entryDx=0;entryDy=0;exitX=0.5;exitY=0;exitDx=0;exitDy=0;" edge="1" parent="1" source="1I6qn7epMNJ4oBsnfpb--83" target="1I6qn7epMNJ4oBsnfpb--85">
          <mxGeometry width="50" height="50" relative="1" as="geometry">
            <mxPoint x="429" y="202" as="sourcePoint" />
            <mxPoint x="120" y="122" as="targetPoint" />
          </mxGeometry>
        </mxCell>
        <mxCell id="1I6qn7epMNJ4oBsnfpb--93" value="" style="endArrow=none;html=1;rounded=0;entryX=1;entryY=1;entryDx=0;entryDy=0;exitX=0.5;exitY=0;exitDx=0;exitDy=0;" edge="1" parent="1" source="1I6qn7epMNJ4oBsnfpb--83" target="1I6qn7epMNJ4oBsnfpb--86">
          <mxGeometry width="50" height="50" relative="1" as="geometry">
            <mxPoint x="374.5" y="252" as="sourcePoint" />
            <mxPoint x="145.5" y="102" as="targetPoint" />
          </mxGeometry>
        </mxCell>
        <mxCell id="1I6qn7epMNJ4oBsnfpb--94" value="" style="endArrow=none;html=1;rounded=0;entryX=0.5;entryY=1;entryDx=0;entryDy=0;exitX=0.5;exitY=0;exitDx=0;exitDy=0;" edge="1" parent="1" source="1I6qn7epMNJ4oBsnfpb--83" target="1I6qn7epMNJ4oBsnfpb--87">
          <mxGeometry width="50" height="50" relative="1" as="geometry">
            <mxPoint x="410" y="242" as="sourcePoint" />
            <mxPoint x="271" y="42" as="targetPoint" />
          </mxGeometry>
        </mxCell>
        <mxCell id="1I6qn7epMNJ4oBsnfpb--95" value="" style="endArrow=none;html=1;rounded=0;entryX=0.5;entryY=1;entryDx=0;entryDy=0;exitX=0.5;exitY=0;exitDx=0;exitDy=0;" edge="1" parent="1" source="1I6qn7epMNJ4oBsnfpb--83" target="1I6qn7epMNJ4oBsnfpb--88">
          <mxGeometry width="50" height="50" relative="1" as="geometry">
            <mxPoint x="344" y="252" as="sourcePoint" />
            <mxPoint x="270" y="22" as="targetPoint" />
          </mxGeometry>
        </mxCell>
        <mxCell id="1I6qn7epMNJ4oBsnfpb--96" value="" style="endArrow=none;html=1;rounded=0;entryX=0.5;entryY=1;entryDx=0;entryDy=0;exitX=0.5;exitY=0;exitDx=0;exitDy=0;" edge="1" parent="1" source="1I6qn7epMNJ4oBsnfpb--83" target="1I6qn7epMNJ4oBsnfpb--89">
          <mxGeometry width="50" height="50" relative="1" as="geometry">
            <mxPoint x="244" y="272" as="sourcePoint" />
            <mxPoint x="270" y="2" as="targetPoint" />
          </mxGeometry>
        </mxCell>
        <mxCell id="1I6qn7epMNJ4oBsnfpb--97" value="" style="endArrow=none;html=1;rounded=0;entryX=0;entryY=1;entryDx=0;entryDy=0;exitX=0.5;exitY=0;exitDx=0;exitDy=0;" edge="1" parent="1" source="1I6qn7epMNJ4oBsnfpb--83" target="1I6qn7epMNJ4oBsnfpb--90">
          <mxGeometry width="50" height="50" relative="1" as="geometry">
            <mxPoint x="244" y="272" as="sourcePoint" />
            <mxPoint x="380" y="42" as="targetPoint" />
          </mxGeometry>
        </mxCell>
        <mxCell id="1I6qn7epMNJ4oBsnfpb--98" value="&lt;span style=&quot;font-size: 18px;&quot;&gt;用户&lt;/span&gt;" style="rounded=0;whiteSpace=wrap;html=1;" vertex="1" parent="1">
          <mxGeometry x="-1580" y="250" width="110" height="60" as="geometry" />
        </mxCell>
        <mxCell id="1I6qn7epMNJ4oBsnfpb--99" value="&lt;font style=&quot;font-size: 18px;&quot;&gt;用户ID&lt;/font&gt;" style="ellipse;whiteSpace=wrap;html=1;" vertex="1" parent="1">
          <mxGeometry x="-1810" y="172" width="100" height="70" as="geometry" />
        </mxCell>
        <mxCell id="1I6qn7epMNJ4oBsnfpb--100" value="&lt;font style=&quot;font-size: 18px;&quot;&gt;姓名&lt;/font&gt;" style="ellipse;whiteSpace=wrap;html=1;" vertex="1" parent="1">
          <mxGeometry x="-1800" y="80" width="100" height="70" as="geometry" />
        </mxCell>
        <mxCell id="1I6qn7epMNJ4oBsnfpb--101" value="&lt;font style=&quot;font-size: 18px;&quot;&gt;性别&lt;/font&gt;" style="ellipse;whiteSpace=wrap;html=1;" vertex="1" parent="1">
          <mxGeometry x="-1400" y="10" width="100" height="70" as="geometry" />
        </mxCell>
        <mxCell id="1I6qn7epMNJ4oBsnfpb--102" value="&lt;span style=&quot;font-size: 18px;&quot;&gt;手机号&lt;/span&gt;" style="ellipse;whiteSpace=wrap;html=1;" vertex="1" parent="1">
          <mxGeometry x="-1340" y="160" width="100" height="70" as="geometry" />
        </mxCell>
        <mxCell id="1I6qn7epMNJ4oBsnfpb--103" value="" style="endArrow=none;html=1;rounded=0;entryX=1;entryY=1;entryDx=0;entryDy=0;exitX=0.5;exitY=0;exitDx=0;exitDy=0;" edge="1" parent="1" source="1I6qn7epMNJ4oBsnfpb--98" target="1I6qn7epMNJ4oBsnfpb--99">
          <mxGeometry width="50" height="50" relative="1" as="geometry">
            <mxPoint x="-1549" y="300" as="sourcePoint" />
            <mxPoint x="-1499" y="250" as="targetPoint" />
          </mxGeometry>
        </mxCell>
        <mxCell id="1I6qn7epMNJ4oBsnfpb--104" value="" style="endArrow=none;html=1;rounded=0;entryX=0.5;entryY=1;entryDx=0;entryDy=0;exitX=0.5;exitY=0;exitDx=0;exitDy=0;" edge="1" parent="1" source="1I6qn7epMNJ4oBsnfpb--98" target="1I6qn7epMNJ4oBsnfpb--100">
          <mxGeometry width="50" height="50" relative="1" as="geometry">
            <mxPoint x="-1330" y="190" as="sourcePoint" />
            <mxPoint x="-1639" y="110" as="targetPoint" />
          </mxGeometry>
        </mxCell>
        <mxCell id="1I6qn7epMNJ4oBsnfpb--105" value="" style="endArrow=none;html=1;rounded=0;entryX=0.5;entryY=1;entryDx=0;entryDy=0;exitX=0.5;exitY=0;exitDx=0;exitDy=0;" edge="1" parent="1" source="1I6qn7epMNJ4oBsnfpb--98" target="1I6qn7epMNJ4oBsnfpb--101">
          <mxGeometry width="50" height="50" relative="1" as="geometry">
            <mxPoint x="-1384.5" y="240" as="sourcePoint" />
            <mxPoint x="-1613.5" y="90" as="targetPoint" />
          </mxGeometry>
        </mxCell>
        <mxCell id="1I6qn7epMNJ4oBsnfpb--106" value="" style="endArrow=none;html=1;rounded=0;entryX=0.5;entryY=1;entryDx=0;entryDy=0;exitX=0.5;exitY=0;exitDx=0;exitDy=0;" edge="1" parent="1" source="1I6qn7epMNJ4oBsnfpb--98" target="1I6qn7epMNJ4oBsnfpb--102">
          <mxGeometry width="50" height="50" relative="1" as="geometry">
            <mxPoint x="-1349" y="230" as="sourcePoint" />
            <mxPoint x="-1488" y="30" as="targetPoint" />
          </mxGeometry>
        </mxCell>
        <mxCell id="1I6qn7epMNJ4oBsnfpb--107" value="&lt;font style=&quot;font-size: 18px;&quot;&gt;年龄&lt;/font&gt;" style="ellipse;whiteSpace=wrap;html=1;" vertex="1" parent="1">
          <mxGeometry x="-1470" y="-50" width="100" height="70" as="geometry" />
        </mxCell>
        <mxCell id="1I6qn7epMNJ4oBsnfpb--108" value="" style="endArrow=none;html=1;rounded=0;entryX=0.5;entryY=0;entryDx=0;entryDy=0;exitX=0.5;exitY=1;exitDx=0;exitDy=0;" edge="1" parent="1" source="1I6qn7epMNJ4oBsnfpb--107" target="1I6qn7epMNJ4oBsnfpb--98">
          <mxGeometry width="50" height="50" relative="1" as="geometry">
            <mxPoint x="-1675" y="-170" as="sourcePoint" />
            <mxPoint x="-1624.5" y="-220" as="targetPoint" />
          </mxGeometry>
        </mxCell>
        <mxCell id="1I6qn7epMNJ4oBsnfpb--109" value="&lt;span style=&quot;font-size: 18px;&quot;&gt;管理员&lt;/span&gt;" style="rounded=0;whiteSpace=wrap;html=1;" vertex="1" parent="1">
          <mxGeometry x="-835.5" y="382" width="110" height="60" as="geometry" />
        </mxCell>
        <mxCell id="1I6qn7epMNJ4oBsnfpb--110" value="&lt;span style=&quot;font-size: 18px;&quot;&gt;管理员ID&lt;/span&gt;" style="ellipse;whiteSpace=wrap;html=1;" vertex="1" parent="1">
          <mxGeometry x="-1080" y="234" width="100" height="70" as="geometry" />
        </mxCell>
        <mxCell id="1I6qn7epMNJ4oBsnfpb--111" value="&lt;font style=&quot;font-size: 18px;&quot;&gt;用户名&lt;/font&gt;" style="ellipse;whiteSpace=wrap;html=1;" vertex="1" parent="1">
          <mxGeometry x="-1060" y="152" width="100" height="70" as="geometry" />
        </mxCell>
        <mxCell id="1I6qn7epMNJ4oBsnfpb--112" value="&lt;font style=&quot;font-size: 18px;&quot;&gt;性别&lt;/font&gt;" style="ellipse;whiteSpace=wrap;html=1;" vertex="1" parent="1">
          <mxGeometry x="-624.5" y="102" width="100" height="70" as="geometry" />
        </mxCell>
        <mxCell id="1I6qn7epMNJ4oBsnfpb--113" value="&lt;span style=&quot;font-size: 18px;&quot;&gt;手机号&lt;/span&gt;" style="ellipse;whiteSpace=wrap;html=1;" vertex="1" parent="1">
          <mxGeometry x="-580" y="202" width="100" height="70" as="geometry" />
        </mxCell>
        <mxCell id="1I6qn7epMNJ4oBsnfpb--114" value="" style="endArrow=none;html=1;rounded=0;entryX=1;entryY=1;entryDx=0;entryDy=0;exitX=0.5;exitY=0;exitDx=0;exitDy=0;" edge="1" parent="1" source="1I6qn7epMNJ4oBsnfpb--109" target="1I6qn7epMNJ4oBsnfpb--110">
          <mxGeometry width="50" height="50" relative="1" as="geometry">
            <mxPoint x="-804.5" y="432" as="sourcePoint" />
            <mxPoint x="-754.5" y="382" as="targetPoint" />
          </mxGeometry>
        </mxCell>
        <mxCell id="1I6qn7epMNJ4oBsnfpb--115" value="" style="endArrow=none;html=1;rounded=0;entryX=0.5;entryY=1;entryDx=0;entryDy=0;exitX=0.5;exitY=0;exitDx=0;exitDy=0;" edge="1" parent="1" source="1I6qn7epMNJ4oBsnfpb--109" target="1I6qn7epMNJ4oBsnfpb--111">
          <mxGeometry width="50" height="50" relative="1" as="geometry">
            <mxPoint x="-585.5" y="322" as="sourcePoint" />
            <mxPoint x="-894.5" y="242" as="targetPoint" />
          </mxGeometry>
        </mxCell>
        <mxCell id="1I6qn7epMNJ4oBsnfpb--116" value="" style="endArrow=none;html=1;rounded=0;entryX=0.5;entryY=1;entryDx=0;entryDy=0;exitX=0.5;exitY=0;exitDx=0;exitDy=0;" edge="1" parent="1" source="1I6qn7epMNJ4oBsnfpb--109" target="1I6qn7epMNJ4oBsnfpb--112">
          <mxGeometry width="50" height="50" relative="1" as="geometry">
            <mxPoint x="-640" y="372" as="sourcePoint" />
            <mxPoint x="-869" y="222" as="targetPoint" />
          </mxGeometry>
        </mxCell>
        <mxCell id="1I6qn7epMNJ4oBsnfpb--117" value="" style="endArrow=none;html=1;rounded=0;entryX=0.5;entryY=1;entryDx=0;entryDy=0;exitX=0.5;exitY=0;exitDx=0;exitDy=0;" edge="1" parent="1" source="1I6qn7epMNJ4oBsnfpb--109" target="1I6qn7epMNJ4oBsnfpb--113">
          <mxGeometry width="50" height="50" relative="1" as="geometry">
            <mxPoint x="-604.5" y="362" as="sourcePoint" />
            <mxPoint x="-743.5" y="162" as="targetPoint" />
          </mxGeometry>
        </mxCell>
        <mxCell id="1I6qn7epMNJ4oBsnfpb--118" value="&lt;font style=&quot;font-size: 18px;&quot;&gt;年龄&lt;/font&gt;" style="ellipse;whiteSpace=wrap;html=1;" vertex="1" parent="1">
          <mxGeometry x="-710" y="32" width="100" height="70" as="geometry" />
        </mxCell>
        <mxCell id="1I6qn7epMNJ4oBsnfpb--119" value="" style="endArrow=none;html=1;rounded=0;entryX=0.5;entryY=0;entryDx=0;entryDy=0;exitX=0.5;exitY=1;exitDx=0;exitDy=0;" edge="1" parent="1" source="1I6qn7epMNJ4oBsnfpb--118" target="1I6qn7epMNJ4oBsnfpb--109">
          <mxGeometry width="50" height="50" relative="1" as="geometry">
            <mxPoint x="-930.5" y="-38" as="sourcePoint" />
            <mxPoint x="-880" y="-88" as="targetPoint" />
          </mxGeometry>
        </mxCell>
        <mxCell id="1I6qn7epMNJ4oBsnfpb--120" value="&lt;font style=&quot;font-size: 18px;&quot;&gt;密码&lt;/font&gt;" style="ellipse;whiteSpace=wrap;html=1;" vertex="1" parent="1">
          <mxGeometry x="-1020" y="72" width="100" height="70" as="geometry" />
        </mxCell>
        <mxCell id="1I6qn7epMNJ4oBsnfpb--122" value="" style="endArrow=none;html=1;rounded=0;entryX=0.5;entryY=1;entryDx=0;entryDy=0;exitX=0.5;exitY=0;exitDx=0;exitDy=0;" edge="1" parent="1" source="1I6qn7epMNJ4oBsnfpb--109" target="1I6qn7epMNJ4oBsnfpb--120">
          <mxGeometry width="50" height="50" relative="1" as="geometry">
            <mxPoint x="-850" y="412" as="sourcePoint" />
            <mxPoint x="-800" y="362" as="targetPoint" />
          </mxGeometry>
        </mxCell>
        <mxCell id="1I6qn7epMNJ4oBsnfpb--123" value="&lt;font style=&quot;font-size: 18px;&quot;&gt;密码&lt;/font&gt;" style="ellipse;whiteSpace=wrap;html=1;" vertex="1" parent="1">
          <mxGeometry x="-1771" y="2" width="100" height="70" as="geometry" />
        </mxCell>
        <mxCell id="1I6qn7epMNJ4oBsnfpb--124" value="" style="endArrow=none;html=1;rounded=0;entryX=0.5;entryY=1;entryDx=0;entryDy=0;exitX=0.5;exitY=0;exitDx=0;exitDy=0;" edge="1" parent="1" source="1I6qn7epMNJ4oBsnfpb--98" target="1I6qn7epMNJ4oBsnfpb--123">
          <mxGeometry width="50" height="50" relative="1" as="geometry">
            <mxPoint x="-880" y="280" as="sourcePoint" />
            <mxPoint x="-1130" y="240" as="targetPoint" />
          </mxGeometry>
        </mxCell>
        <mxCell id="1I6qn7epMNJ4oBsnfpb--125" value="&lt;font style=&quot;font-size: 18px;&quot;&gt;管理&lt;/font&gt;" style="rhombus;whiteSpace=wrap;html=1;" vertex="1" parent="1">
          <mxGeometry x="-1230" y="300" width="80" height="80" as="geometry" />
        </mxCell>
        <mxCell id="1I6qn7epMNJ4oBsnfpb--126" value="" style="endArrow=none;html=1;rounded=0;exitX=1;exitY=0.5;exitDx=0;exitDy=0;entryX=0;entryY=0.5;entryDx=0;entryDy=0;" edge="1" parent="1" source="1I6qn7epMNJ4oBsnfpb--125" target="1I6qn7epMNJ4oBsnfpb--109">
          <mxGeometry width="50" height="50" relative="1" as="geometry">
            <mxPoint x="-1110" y="412.00000000000045" as="sourcePoint" />
            <mxPoint x="-780" y="412" as="targetPoint" />
          </mxGeometry>
        </mxCell>
        <mxCell id="1I6qn7epMNJ4oBsnfpb--127" value="" style="endArrow=none;html=1;rounded=0;exitX=1;exitY=0.5;exitDx=0;exitDy=0;entryX=0;entryY=0.5;entryDx=0;entryDy=0;" edge="1" parent="1" source="1I6qn7epMNJ4oBsnfpb--98" target="1I6qn7epMNJ4oBsnfpb--125">
          <mxGeometry width="50" height="50" relative="1" as="geometry">
            <mxPoint x="-1315" y="380" as="sourcePoint" />
            <mxPoint x="-1040" y="380" as="targetPoint" />
          </mxGeometry>
        </mxCell>
        <mxCell id="1I6qn7epMNJ4oBsnfpb--133" value="&lt;font style=&quot;font-size: 18px;&quot;&gt;管理&lt;/font&gt;" style="rhombus;whiteSpace=wrap;html=1;" vertex="1" parent="1">
          <mxGeometry x="-380" y="322" width="80" height="80" as="geometry" />
        </mxCell>
        <mxCell id="1I6qn7epMNJ4oBsnfpb--134" value="" style="endArrow=none;html=1;rounded=0;exitX=1;exitY=0.5;exitDx=0;exitDy=0;entryX=0;entryY=0.5;entryDx=0;entryDy=0;" edge="1" parent="1" source="1I6qn7epMNJ4oBsnfpb--133" target="1I6qn7epMNJ4oBsnfpb--83">
          <mxGeometry width="50" height="50" relative="1" as="geometry">
            <mxPoint x="-275" y="370" as="sourcePoint" />
            <mxPoint y="370" as="targetPoint" />
          </mxGeometry>
        </mxCell>
        <mxCell id="1I6qn7epMNJ4oBsnfpb--135" value="" style="endArrow=none;html=1;rounded=0;exitX=1;exitY=0.5;exitDx=0;exitDy=0;entryX=0;entryY=0.5;entryDx=0;entryDy=0;" edge="1" parent="1" source="1I6qn7epMNJ4oBsnfpb--109" target="1I6qn7epMNJ4oBsnfpb--133">
          <mxGeometry width="50" height="50" relative="1" as="geometry">
            <mxPoint x="-609" y="410" as="sourcePoint" />
            <mxPoint x="-130" y="430" as="targetPoint" />
          </mxGeometry>
        </mxCell>
        <mxCell id="1I6qn7epMNJ4oBsnfpb--136" value="" style="endArrow=none;html=1;rounded=0;exitX=0.5;exitY=1;exitDx=0;exitDy=0;entryX=1;entryY=0.5;entryDx=0;entryDy=0;" edge="1" parent="1" source="1I6qn7epMNJ4oBsnfpb--83" target="1I6qn7epMNJ4oBsnfpb--137">
          <mxGeometry width="50" height="50" relative="1" as="geometry">
            <mxPoint x="-860" y="330" as="sourcePoint" />
            <mxPoint x="-50" y="500" as="targetPoint" />
          </mxGeometry>
        </mxCell>
        <mxCell id="1I6qn7epMNJ4oBsnfpb--137" value="&lt;font style=&quot;font-size: 18px;&quot;&gt;开具&lt;/font&gt;" style="rhombus;whiteSpace=wrap;html=1;" vertex="1" parent="1">
          <mxGeometry x="-150" y="504" width="80" height="80" as="geometry" />
        </mxCell>
        <mxCell id="1I6qn7epMNJ4oBsnfpb--138" value="" style="endArrow=none;html=1;rounded=0;exitX=0;exitY=0.5;exitDx=0;exitDy=0;entryX=0.5;entryY=0;entryDx=0;entryDy=0;" edge="1" parent="1" source="1I6qn7epMNJ4oBsnfpb--137" target="1I6qn7epMNJ4oBsnfpb--53">
          <mxGeometry width="50" height="50" relative="1" as="geometry">
            <mxPoint x="-860" y="330" as="sourcePoint" />
            <mxPoint x="-810" y="280" as="targetPoint" />
          </mxGeometry>
        </mxCell>
        <mxCell id="1I6qn7epMNJ4oBsnfpb--139" value="" style="endArrow=none;html=1;rounded=0;entryX=1;entryY=0.5;entryDx=0;entryDy=0;exitX=0;exitY=0.5;exitDx=0;exitDy=0;" edge="1" parent="1" source="1I6qn7epMNJ4oBsnfpb--140" target="1I6qn7epMNJ4oBsnfpb--36">
          <mxGeometry width="50" height="50" relative="1" as="geometry">
            <mxPoint x="-1960" y="280" as="sourcePoint" />
            <mxPoint x="-1470" y="160" as="targetPoint" />
          </mxGeometry>
        </mxCell>
        <mxCell id="1I6qn7epMNJ4oBsnfpb--140" value="&lt;font style=&quot;font-size: 18px;&quot;&gt;支付&lt;/font&gt;" style="rhombus;whiteSpace=wrap;html=1;" vertex="1" parent="1">
          <mxGeometry x="-1950" y="230" width="80" height="80" as="geometry" />
        </mxCell>
        <mxCell id="1I6qn7epMNJ4oBsnfpb--141" value="" style="endArrow=none;html=1;rounded=0;entryX=1;entryY=0.5;entryDx=0;entryDy=0;exitX=0;exitY=0.5;exitDx=0;exitDy=0;" edge="1" parent="1" source="1I6qn7epMNJ4oBsnfpb--98" target="1I6qn7epMNJ4oBsnfpb--140">
          <mxGeometry width="50" height="50" relative="1" as="geometry">
            <mxPoint x="-1940" y="280" as="sourcePoint" />
            <mxPoint x="-2221" y="280" as="targetPoint" />
          </mxGeometry>
        </mxCell>
        <mxCell id="1I6qn7epMNJ4oBsnfpb--142" value="&lt;font style=&quot;font-size: 18px;&quot;&gt;查看&lt;/font&gt;" style="rhombus;whiteSpace=wrap;html=1;" vertex="1" parent="1">
          <mxGeometry x="-1700" y="-190" width="80" height="80" as="geometry" />
        </mxCell>
        <mxCell id="1I6qn7epMNJ4oBsnfpb--144" value="" style="endArrow=none;html=1;rounded=0;entryX=0.5;entryY=1;entryDx=0;entryDy=0;exitX=0.5;exitY=0;exitDx=0;exitDy=0;" edge="1" parent="1" source="1I6qn7epMNJ4oBsnfpb--98" target="1I6qn7epMNJ4oBsnfpb--142">
          <mxGeometry width="50" height="50" relative="1" as="geometry">
            <mxPoint x="-1040" y="-60" as="sourcePoint" />
            <mxPoint x="-990" y="-110" as="targetPoint" />
          </mxGeometry>
        </mxCell>
        <mxCell id="1I6qn7epMNJ4oBsnfpb--145" value="" style="endArrow=none;html=1;rounded=0;entryX=0.5;entryY=1;entryDx=0;entryDy=0;exitX=0.5;exitY=0;exitDx=0;exitDy=0;" edge="1" parent="1" source="1I6qn7epMNJ4oBsnfpb--142" target="1I6qn7epMNJ4oBsnfpb--1">
          <mxGeometry width="50" height="50" relative="1" as="geometry">
            <mxPoint x="-1340" y="150" as="sourcePoint" />
            <mxPoint x="-1475" y="-210" as="targetPoint" />
          </mxGeometry>
        </mxCell>
        <mxCell id="1I6qn7epMNJ4oBsnfpb--146" value="&lt;font style=&quot;font-size: 18px;&quot;&gt;预约&lt;/font&gt;" style="rhombus;whiteSpace=wrap;html=1;rotation=45;" vertex="1" parent="1">
          <mxGeometry x="-1470" y="-280" width="80" height="80" as="geometry" />
        </mxCell>
        <mxCell id="1I6qn7epMNJ4oBsnfpb--147" value="" style="endArrow=none;html=1;rounded=0;entryX=0.5;entryY=1;entryDx=0;entryDy=0;exitX=0.5;exitY=0;exitDx=0;exitDy=0;" edge="1" parent="1" source="1I6qn7epMNJ4oBsnfpb--98" target="1I6qn7epMNJ4oBsnfpb--146">
          <mxGeometry width="50" height="50" relative="1" as="geometry">
            <mxPoint x="-1040" y="-60" as="sourcePoint" />
            <mxPoint x="-990" y="-110" as="targetPoint" />
          </mxGeometry>
        </mxCell>
        <mxCell id="1I6qn7epMNJ4oBsnfpb--148" value="" style="endArrow=none;html=1;rounded=0;entryX=0.5;entryY=1;entryDx=0;entryDy=0;exitX=0.5;exitY=0;exitDx=0;exitDy=0;" edge="1" parent="1" source="1I6qn7epMNJ4oBsnfpb--146" target="1I6qn7epMNJ4oBsnfpb--68">
          <mxGeometry width="50" height="50" relative="1" as="geometry">
            <mxPoint x="-1300" y="132" as="sourcePoint" />
            <mxPoint x="-1233" y="-330" as="targetPoint" />
          </mxGeometry>
        </mxCell>
        <mxCell id="1I6qn7epMNJ4oBsnfpb--149" value="&lt;font style=&quot;font-size: 18px;&quot;&gt;查看&lt;/font&gt;" style="rhombus;whiteSpace=wrap;html=1;rotation=45;" vertex="1" parent="1">
          <mxGeometry x="-690" y="-250" width="80" height="80" as="geometry" />
        </mxCell>
        <mxCell id="1I6qn7epMNJ4oBsnfpb--150" value="" style="endArrow=none;html=1;rounded=0;entryX=0.5;entryY=1;entryDx=0;entryDy=0;exitX=0.5;exitY=0;exitDx=0;exitDy=0;" edge="1" parent="1" source="1I6qn7epMNJ4oBsnfpb--98" target="1I6qn7epMNJ4oBsnfpb--149">
          <mxGeometry width="50" height="50" relative="1" as="geometry">
            <mxPoint x="-1040" y="-60" as="sourcePoint" />
            <mxPoint x="-990" y="-110" as="targetPoint" />
          </mxGeometry>
        </mxCell>
        <mxCell id="1I6qn7epMNJ4oBsnfpb--151" value="" style="endArrow=none;html=1;rounded=0;entryX=0.5;entryY=0;entryDx=0;entryDy=0;exitX=0.5;exitY=1;exitDx=0;exitDy=0;" edge="1" parent="1" source="1I6qn7epMNJ4oBsnfpb--19" target="1I6qn7epMNJ4oBsnfpb--149">
          <mxGeometry width="50" height="50" relative="1" as="geometry">
            <mxPoint x="-1040" y="-60" as="sourcePoint" />
            <mxPoint x="-990" y="-110" as="targetPoint" />
          </mxGeometry>
        </mxCell>
        <mxCell id="1I6qn7epMNJ4oBsnfpb--152" value="&lt;font style=&quot;font-size: 18px;&quot;&gt;记录&lt;/font&gt;" style="rhombus;whiteSpace=wrap;html=1;rotation=45;" vertex="1" parent="1">
          <mxGeometry x="40" y="-150" width="80" height="80" as="geometry" />
        </mxCell>
        <mxCell id="1I6qn7epMNJ4oBsnfpb--153" value="" style="endArrow=none;html=1;rounded=0;entryX=0;entryY=0.5;entryDx=0;entryDy=0;exitX=0.5;exitY=1;exitDx=0;exitDy=0;" edge="1" parent="1" source="1I6qn7epMNJ4oBsnfpb--19" target="1I6qn7epMNJ4oBsnfpb--152">
          <mxGeometry width="50" height="50" relative="1" as="geometry">
            <mxPoint x="-990" y="190" as="sourcePoint" />
            <mxPoint x="-940" y="140" as="targetPoint" />
          </mxGeometry>
        </mxCell>
        <mxCell id="1I6qn7epMNJ4oBsnfpb--154" value="" style="endArrow=none;html=1;rounded=0;entryX=0.5;entryY=0;entryDx=0;entryDy=0;exitX=1;exitY=0.5;exitDx=0;exitDy=0;" edge="1" parent="1" source="1I6qn7epMNJ4oBsnfpb--152" target="1I6qn7epMNJ4oBsnfpb--83">
          <mxGeometry width="50" height="50" relative="1" as="geometry">
            <mxPoint x="200" y="-330" as="sourcePoint" />
            <mxPoint x="258" y="-128" as="targetPoint" />
          </mxGeometry>
        </mxCell>
        <mxCell id="1I6qn7epMNJ4oBsnfpb--155" value="&lt;font style=&quot;font-size: 18px;&quot;&gt;查阅&lt;/font&gt;" style="rhombus;whiteSpace=wrap;html=1;rotation=30;" vertex="1" parent="1">
          <mxGeometry x="-1390" y="590" width="80" height="80" as="geometry" />
        </mxCell>
        <mxCell id="1I6qn7epMNJ4oBsnfpb--156" value="" style="endArrow=none;html=1;rounded=0;entryX=0.5;entryY=1;entryDx=0;entryDy=0;exitX=0;exitY=0.5;exitDx=0;exitDy=0;" edge="1" parent="1" source="1I6qn7epMNJ4oBsnfpb--155" target="1I6qn7epMNJ4oBsnfpb--98">
          <mxGeometry width="50" height="50" relative="1" as="geometry">
            <mxPoint x="-1260" y="260" as="sourcePoint" />
            <mxPoint x="-1210" y="210" as="targetPoint" />
          </mxGeometry>
        </mxCell>
        <mxCell id="1I6qn7epMNJ4oBsnfpb--157" value="" style="endArrow=none;html=1;rounded=0;entryX=0;entryY=0.5;entryDx=0;entryDy=0;exitX=1;exitY=0.5;exitDx=0;exitDy=0;" edge="1" parent="1" source="1I6qn7epMNJ4oBsnfpb--155" target="1I6qn7epMNJ4oBsnfpb--53">
          <mxGeometry width="50" height="50" relative="1" as="geometry">
            <mxPoint x="-1375" y="620" as="sourcePoint" />
            <mxPoint x="-1515" y="320" as="targetPoint" />
          </mxGeometry>
        </mxCell>
      </root>
    </mxGraphModel>
  </diagram>
</mxfile>
